<?xml version="1.0" standalone="yes"?>
<svg xmlns="http://www.w3.org/2000/svg" width="200" height="200">
<path style="fill:#010101; stroke:none;" d="M0 0L0 200L200 200L200 0L0 0z"/>
<path style="fill:#1d0141; stroke:none;" d="M86 2L86 3L90 3L86 2z"/>
<path style="fill:#13012f; stroke:none;" d="M90 2L90 3L93 3L90 2z"/>
<path style="fill:#0b011f; stroke:none;" d="M93 2L93 3L96 3L93 2M104 2L104 3L107 3L104 2z"/>
<path style="fill:#13012f; stroke:none;" d="M107 2L107 3L110 3L107 2z"/>
<path style="fill:#1d0141; stroke:none;" d="M110 2L110 3L114 3L110 2M80 3L80 4L83 4L80 3z"/>
<path style="fill:#13012f; stroke:none;" d="M83 3L84 4L83 3z"/>
<path style="fill:#0b011f; stroke:none;" d="M84.6667 3.33333L85.3333 3.66667L84.6667 3.33333M114.667 3.33333L115.333 3.66667L114.667 3.33333z"/>
<path style="fill:#13012f; stroke:none;" d="M116 3L117 4L116 3z"/>
<path style="fill:#1d0141; stroke:none;" d="M117 3L117 4L120 4L117 3M76.6667 4.33333L77.3333 4.66667L76.6667 4.33333z"/>
<path style="fill:#13012f; stroke:none;" d="M78 4L79 5L78 4z"/>
<path style="fill:#0b011f; stroke:none;" d="M79 4L80 5L79 4M120 4L121 5L120 4z"/>
<path style="fill:#13012f; stroke:none;" d="M121 4L122 5L121 4z"/>
<path style="fill:#1d0141; stroke:none;" d="M122.667 4.33333L123.333 4.66667L122.667 4.33333M72.6667 5.33333L73.3333 5.66667L72.6667 5.33333z"/>
<path style="fill:#13012f; stroke:none;" d="M74 5L75 6L74 5z"/>
<path style="fill:#0b011f; stroke:none;" d="M75 5L76 6L75 5M124 5L125 6L124 5z"/>
<path style="fill:#13012f; stroke:none;" d="M125 5L126 6L125 5z"/>
<path style="fill:#1d0141; stroke:none;" d="M126.667 5.33333L127.333 5.66667L126.667 5.33333M69 6L70 7L69 6z"/>
<path style="fill:#13012f; stroke:none;" d="M70 6L71 7L70 6z"/>
<path style="fill:#0b011f; stroke:none;" d="M71 6L72 7L71 6M128 6L129 7L128 6z"/>
<path style="fill:#13012f; stroke:none;" d="M129 6L130 7L129 6z"/>
<path style="fill:#1d0141; stroke:none;" d="M130 6L131 7L130 6M66 7L67 8L66 7z"/>
<path style="fill:#13012f; stroke:none;" d="M67 7L68 8L67 7z"/>
<path style="fill:#0b011f; stroke:none;" d="M68 7L69 8L68 7M131 7L132 8L131 7z"/>
<path style="fill:#13012f; stroke:none;" d="M132 7L133 8L132 7z"/>
<path style="fill:#1d0141; stroke:none;" d="M133 7L134 8L133 7M63.6667 8.33333L64.3333 8.66667L63.6667 8.33333z"/>
<path style="fill:#13012f; stroke:none;" d="M65 8L66 9L65 8M134 8L135 9L134 8z"/>
<path style="fill:#1d0141; stroke:none;" d="M135.667 8.33333L136.333 8.66667L135.667 8.33333M61 9L62 10L61 9z"/>
<path style="fill:#13012f; stroke:none;" d="M62 9L63 10L62 9z"/>
<path style="fill:#0b011f; stroke:none;" d="M63 9L64 10L63 9M136 9L137 10L136 9z"/>
<path style="fill:#13012f; stroke:none;" d="M137 9L138 10L137 9z"/>
<path style="fill:#1d0141; stroke:none;" d="M138 9L139 10L138 9M59 10L60 11L59 10z"/>
<path style="fill:#13012f; stroke:none;" d="M60 10L61 11L60 10M139 10L140 11L139 10z"/>
<path style="fill:#1d0141; stroke:none;" d="M140 10L141 11L140 10M57 11L58 12L57 11z"/>
<path style="fill:#0b011f; stroke:none;" d="M58 11L59 12L58 11M141 11L142 12L141 11z"/>
<path style="fill:#1d0141; stroke:none;" d="M142 11L143 12L142 11M55 12L56 13L55 12z"/>
<path style="fill:#0b011f; stroke:none;" d="M56 12L57 13L56 12M143 12L144 13L143 12z"/>
<path style="fill:#1d0141; stroke:none;" d="M144 12L145 13L144 12M53 13L54 14L53 13z"/>
<path style="fill:#0b011f; stroke:none;" d="M54 13L55 14L54 13M145 13L146 14L145 13z"/>
<path style="fill:#1d0141; stroke:none;" d="M146 13L147 14L146 13M51 14L52 15L51 14z"/>
<path style="fill:#13012f; stroke:none;" d="M52 14L53 15L52 14M147 14L148 15L147 14z"/>
<path style="fill:#1d0141; stroke:none;" d="M148 14L149 15L148 14M49 15L48 17L49 15z"/>
<path style="fill:#13012f; stroke:none;" d="M50 15L51 16L50 15M149 15L150 16L149 15z"/>
<path style="fill:#1d0141; stroke:none;" d="M150 15L152 17L150 15z"/>
<path style="fill:#0b011f; stroke:none;" d="M49 16L50 17L49 16M150 16L151 17L150 16z"/>
<path style="fill:#1d0141; stroke:none;" d="M46 17L47 18L46 17z"/>
<path style="fill:#13012f; stroke:none;" d="M47 17L48 18L47 17M152 17L153 18L152 17z"/>
<path style="fill:#1d0141; stroke:none;" d="M153 17L154 18L153 17z"/>
<path style="fill:#13012f; stroke:none;" d="M45 18L46 19L45 18M154 18L155 19L154 18z"/>
<path style="fill:#1d0141; stroke:none;" d="M43 19L42 21L43 19z"/>
<path style="fill:#13012f; stroke:none;" d="M44 19L45 20L44 19M155 19L156 20L155 19z"/>
<path style="fill:#1d0141; stroke:none;" d="M156 19L158 21L156 19z"/>
<path style="fill:#0b011f; stroke:none;" d="M43 20L44 21L43 20M156 20L157 21L156 20z"/>
<path style="fill:#1d0141; stroke:none;" d="M40 21L38 24L40 21z"/>
<path style="fill:#13012f; stroke:none;" d="M41 21L42 22L41 21M158 21L159 22L158 21z"/>
<path style="fill:#1d0141; stroke:none;" d="M159 21L162 24L159 21z"/>
<path style="fill:#0b011f; stroke:none;" d="M40 22L41 23L40 22M159 22L160 23L159 22M39 23L40 24L39 23M160 23L161 24L160 23z"/>
<path style="fill:#13012f; stroke:none;" d="M37 24L38 25L37 24M162 24L163 25L162 24z"/>
<path style="fill:#1d0141; stroke:none;" d="M35 25L25 36L35 25z"/>
<path style="fill:#13012f; stroke:none;" d="M36 25L37 26L36 25M163 25L166 28L163 25z"/>
<path style="fill:#1d0141; stroke:none;" d="M164 25L165 26L164 25z"/>
<path style="fill:#13012f; stroke:none;" d="M35 26L36 27L35 26z"/>
<path style="fill:#1d0141; stroke:none;" d="M165 26L166 27L165 26z"/>
<path style="fill:#13012f; stroke:none;" d="M34 27L35 28L34 27z"/>
<path style="fill:#1d0141; stroke:none;" d="M166 27L175 36L166 27z"/>
<path style="fill:#0b011f; stroke:none;" d="M33 28L34 29L33 28M166 28L167 29L166 28M32 29L33 30L32 29M167 29L168 30L167 29M31 30L32 31L31 30M168 30L169 31L168 30M30 31L31 32L30 31M169 31L170 32L169 31M29 32L30 33L29 32M170 32L171 33L170 32M28 33L29 34L28 33M171 33L172 34L171 33z"/>
<path style="fill:#13012f; stroke:none;" d="M27 34L28 35L27 34M172 34L173 35L172 34M26 35L27 36L26 35M173 35L174 36L173 35M25 36L26 37L25 36M174 36L175 37L174 36M24 37L25 38L24 37M175 37L176 38L175 37z"/>
<path style="fill:#1d0141; stroke:none;" d="M23 38L21 41L23 38M176 38L179 41L176 38z"/>
<path style="fill:#0b011f; stroke:none;" d="M23 39L24 40L23 39M176 39L177 40L176 39M22 40L23 41L22 40M177 40L178 41L177 40z"/>
<path style="fill:#13012f; stroke:none;" d="M21 41L22 42L21 41M178 41L179 42L178 41z"/>
<path style="fill:#1d0141; stroke:none;" d="M20 42L19 44L20 42M179 42L181 44L179 42z"/>
<path style="fill:#0b011f; stroke:none;" d="M20 43L21 44L20 43M179 43L180 44L179 43z"/>
<path style="fill:#13012f; stroke:none;" d="M19 44L20 45L19 44M180 44L181 45L180 44M18 45L19 46L18 45M181 45L182 46L181 45z"/>
<path style="fill:#1d0141; stroke:none;" d="M17 46L18 47L17 46M182 46L183 47L182 46z"/>
<path style="fill:#13012f; stroke:none;" d="M17 47L18 48L17 47M182 47L183 48L182 47z"/>
<path style="fill:#1d0141; stroke:none;" d="M16 48L15 50L16 48M183 48L185 50L183 48z"/>
<path style="fill:#0b011f; stroke:none;" d="M16 49L17 50L16 49M183 49L184 50L183 49z"/>
<path style="fill:#13012f; stroke:none;" d="M15 50L16 51L15 50M184 50L185 51L184 50z"/>
<path style="fill:#1d0141; stroke:none;" d="M14 51L15 52L14 51M185 51L186 52L185 51z"/>
<path style="fill:#13012f; stroke:none;" d="M14 52L15 53L14 52M185 52L186 53L185 52z"/>
<path style="fill:#1d0141; stroke:none;" d="M13 53L14 54L13 53M186 53L187 54L186 53z"/>
<path style="fill:#0b011f; stroke:none;" d="M13 54L14 55L13 54M186 54L187 55L186 54z"/>
<path style="fill:#1d0141; stroke:none;" d="M12 55L13 56L12 55z"/>
<path style="fill:#2f0b01; stroke:none;" d="M67 55L68 56L67 55z"/>
<path style="fill:#8c3001; stroke:none;" d="M68 55L69 56L68 55z"/>
<path style="fill:#a83b01; stroke:none;" d="M69 55L70 56L69 55z"/>
<path style="fill:#b94201; stroke:none;" d="M70 55L71 56L70 55z"/>
<path style="fill:#ce4901; stroke:none;" d="M71 55L71 56L100 56L71 55z"/>
<path style="fill:#b94201; stroke:none;" d="M100 55L101 56L100 55z"/>
<path style="fill:#a83b01; stroke:none;" d="M101 55L102 56L101 55z"/>
<path style="fill:#4f1701; stroke:none;" d="M102 55L103 56L102 55z"/>
<path style="fill:#8c3001; stroke:none;" d="M117 55L118 56L117 55z"/>
<path style="fill:#a83b01; stroke:none;" d="M118 55L119 56L118 55z"/>
<path style="fill:#b94201; stroke:none;" d="M119 55L120 56L119 55z"/>
<path style="fill:#ce4901; stroke:none;" d="M120 55L120 56L149 56L120 55z"/>
<path style="fill:#b94201; stroke:none;" d="M149 55L150 56L149 55z"/>
<path style="fill:#a83b01; stroke:none;" d="M150 55L151 56L150 55z"/>
<path style="fill:#6f2401; stroke:none;" d="M151 55L152 56L151 55z"/>
<path style="fill:#1d0141; stroke:none;" d="M187 55L188 56L187 55z"/>
<path style="fill:#0b011f; stroke:none;" d="M12 56L13 57L12 56z"/>
<path style="fill:#a83b01; stroke:none;" d="M66 56L67 57L66 56z"/>
<path style="fill:#ff5d01; stroke:none;" d="M45 130C53.0366 133.867 64.2259 132.042 73 131.999C75.9438 131.985 81.0991 132.464 82.9174 129.486C84.5767 126.769 81.7679 122.95 81.8897 120C82.1826 112.903 85.9665 106.024 87 99L108 99C106.512 105.49 105.017 112.991 102.081 118.985C100.527 122.159 96.5887 124.528 95.7508 127.931C94.7372 132.046 100.445 131.96 103 131.996C110.044 132.095 124.644 134.691 130.677 130.682C134.194 128.346 130.964 119.962 131.899 116C135.376 101.269 139.926 86.4493 144.436 72C145.497 68.6008 155.062 58.8301 150.667 56.6026C144.376 53.4146 131.017 55.9856 124 56C121.518 56.0051 116.811 55.3193 115.708 58.3179C112.817 66.1726 118.694 79.0438 110.487 86.3966C106.486 89.9814 96.0628 88 91 88C91.9545 81.5126 93.7027 72.7066 97.0887 67.0394C98.5777 64.5472 103.608 61.5419 103.079 58.3033C102.584 55.2731 97.0907 56.0043 95 56C89.3716 55.9884 70.6119 53.0346 66.8472 57.6034C64.8511 60.0259 67.1805 63.384 67.4375 66C67.8274 69.9684 65.9247 74.242 64.8596 78C61.0857 91.3147 58.552 106.356 52.8912 118.985C50.937 123.345 46.67 125.514 45 130z"/>
<path style="fill:#a83b01; stroke:none;" d="M103 56L104 57L103 56z"/>
<path style="fill:#8c3001; stroke:none;" d="M115 56L116 57L115 56z"/>
<path style="fill:#ce4901; stroke:none;" d="M152 56L153 57L152 56z"/>
<path style="fill:#0b011f; stroke:none;" d="M187 56L188 57L187 56z"/>
<path style="fill:#1d0141; stroke:none;" d="M11 57L12 58L11 57z"/>
<path style="fill:#8c3001; stroke:none;" d="M65 57L66 58L65 57z"/>
<path style="fill:#6f2401; stroke:none;" d="M104 57L105 58L104 57M114 57L115 58L114 57z"/>
<path style="fill:#a83b01; stroke:none;" d="M153 57L154 58L153 57z"/>
<path style="fill:#1d0141; stroke:none;" d="M188 57L189 58L188 57z"/>
<path style="fill:#0b011f; stroke:none;" d="M11 58L12 59L11 58z"/>
<path style="fill:#ce4901; stroke:none;" d="M65 58L66 59L65 58z"/>
<path style="fill:#8c3001; stroke:none;" d="M104 58L105 59L104 58z"/>
<path style="fill:#b94201; stroke:none;" d="M114 58L115 59L114 58M153 58L154 59L153 58z"/>
<path style="fill:#0b011f; stroke:none;" d="M188 58L189 59L188 58z"/>
<path style="fill:#1d0141; stroke:none;" d="M10 59L11 60L10 59z"/>
<path style="fill:#4f1701; stroke:none;" d="M104 59L105 60L104 59z"/>
<path style="fill:#ce4901; stroke:none;" d="M114 59L115 60L114 59z"/>
<path style="fill:#8c3001; stroke:none;" d="M153 59L154 60L153 59z"/>
<path style="fill:#1d0141; stroke:none;" d="M189 59L190 60L189 59z"/>
<path style="fill:#13012f; stroke:none;" d="M10 60L11 61L10 60z"/>
<path style="fill:#ce4901; stroke:none;" d="M65 60L66 61L65 60M103 60L102 62L103 60z"/>
<path style="fill:#a83b01; stroke:none;" d="M114 60L115 61L114 60z"/>
<path style="fill:#ce4901; stroke:none;" d="M152 60L153 61L152 60z"/>
<path style="fill:#190601; stroke:none;" d="M153 60L154 61L153 60z"/>
<path style="fill:#13012f; stroke:none;" d="M189 60L190 61L189 60z"/>
<path style="fill:#1d0141; stroke:none;" d="M9 61L10 62L9 61z"/>
<path style="fill:#4f1701; stroke:none;" d="M65 61L66 62L65 61z"/>
<path style="fill:#2f0b01; stroke:none;" d="M103 61L104 62L103 61z"/>
<path style="fill:#ce4901; stroke:none;" d="M115 61L116 62L115 61z"/>
<path style="fill:#4f1701; stroke:none;" d="M152 61L153 62L152 61z"/>
<path style="fill:#1d0141; stroke:none;" d="M190 61L191 62L190 61z"/>
<path style="fill:#13012f; stroke:none;" d="M9 62L10 63L9 62z"/>
<path style="fill:#a83b01; stroke:none;" d="M66 62L67 63L66 62M101 62L102 63L101 62z"/>
<path style="fill:#6f2401; stroke:none;" d="M115 62L116 63L115 62z"/>
<path style="fill:#b94201; stroke:none;" d="M150 62L151 63L150 62z"/>
<path style="fill:#2f0b01; stroke:none;" d="M151 62L152 63L151 62z"/>
<path style="fill:#13012f; stroke:none;" d="M190 62L191 63L190 62z"/>
<path style="fill:#1d0141; stroke:none;" d="M8.33333 63.6667L8.66667 64.3333L8.33333 63.6667z"/>
<path style="fill:#0b011f; stroke:none;" d="M9 63L10 64L9 63z"/>
<path style="fill:#ce4901; stroke:none;" d="M99 63L98 65L99 63z"/>
<path style="fill:#6f2401; stroke:none;" d="M100 63L101 64L100 63z"/>
<path style="fill:#ce4901; stroke:none;" d="M116 63L117 64L116 63z"/>
<path style="fill:#8c3001; stroke:none;" d="M149 63L150 64L149 63z"/>
<path style="fill:#0b011f; stroke:none;" d="M190 63L191 64L190 63z"/>
<path style="fill:#1d0141; stroke:none;" d="M191.333 63.6667L191.667 64.3333L191.333 63.6667z"/>
<path style="fill:#a83b01; stroke:none;" d="M67 64L68 65L67 64z"/>
<path style="fill:#190601; stroke:none;" d="M99 64L100 65L99 64z"/>
<path style="fill:#8c3001; stroke:none;" d="M116 64L117 65L116 64z"/>
<path style="fill:#ce4901; stroke:none;" d="M147 64L148 65L147 64z"/>
<path style="fill:#4f1701; stroke:none;" d="M148 64L149 65L148 64z"/>
<path style="fill:#13012f; stroke:none;" d="M8 65L9 66L8 65z"/>
<path style="fill:#8c3001; stroke:none;" d="M67.3333 65.6667L67.6667 66.3333L67.3333 65.6667z"/>
<path style="fill:#ce4901; stroke:none;" d="M97 65L98 66L97 65z"/>
<path style="fill:#2f0b01; stroke:none;" d="M116.333 65.6667L116.667 66.3333L116.333 65.6667z"/>
<path style="fill:#4f1701; stroke:none;" d="M147 65L148 66L147 65z"/>
<path style="fill:#13012f; stroke:none;" d="M191 65L192 66L191 65z"/>
<path style="fill:#1d0141; stroke:none;" d="M7 66L8 67L7 66z"/>
<path style="fill:#6f2401; stroke:none;" d="M97 66L98 67L97 66z"/>
<path style="fill:#a83b01; stroke:none;" d="M146 66L147 67L146 66z"/>
<path style="fill:#1d0141; stroke:none;" d="M192 66L193 67L192 66z"/>
<path style="fill:#13012f; stroke:none;" d="M7 67L8 68L7 67z"/>
<path style="fill:#a83b01; stroke:none;" d="M67 67L68 68L67 67z"/>
<path style="fill:#ce4901; stroke:none;" d="M96 67L97 68L96 67z"/>
<path style="fill:#6f2401; stroke:none;" d="M116 67L117 68L116 67z"/>
<path style="fill:#190601; stroke:none;" d="M146 67L147 68L146 67z"/>
<path style="fill:#13012f; stroke:none;" d="M192 67L193 68L192 67z"/>
<path style="fill:#0b011f; stroke:none;" d="M7 68L8 69L7 68z"/>
<path style="fill:#ce4901; stroke:none;" d="M67 68L68 69L67 68z"/>
<path style="fill:#8c3001; stroke:none;" d="M96 68L97 69L96 68z"/>
<path style="fill:#a83b01; stroke:none;" d="M116 68L117 69L116 68z"/>
<path style="fill:#b94201; stroke:none;" d="M145 68L146 69L145 68z"/>
<path style="fill:#0b011f; stroke:none;" d="M192 68L193 69L192 68z"/>
<path style="fill:#1d0141; stroke:none;" d="M6 69L7 70L6 69z"/>
<path style="fill:#2f0b01; stroke:none;" d="M96 69L97 70L96 69z"/>
<path style="fill:#ce4901; stroke:none;" d="M116 69L117 70L116 69z"/>
<path style="fill:#8c3001; stroke:none;" d="M145 69L146 70L145 69z"/>
<path style="fill:#1d0141; stroke:none;" d="M193 69L194 70L193 69z"/>
<path style="fill:#13012f; stroke:none;" d="M6 70L7 71L6 70z"/>
<path style="fill:#6f2401; stroke:none;" d="M66 70L67 71L66 70z"/>
<path style="fill:#ce4901; stroke:none;" d="M95 70L96 71L95 70z"/>
<path style="fill:#190601; stroke:none;" d="M115 70L116 71L115 70M145 70L146 71L145 70z"/>
<path style="fill:#13012f; stroke:none;" d="M193 70L194 71L193 70z"/>
<path style="fill:#0b011f; stroke:none;" d="M6 71L7 72L6 71z"/>
<path style="fill:#b94201; stroke:none;" d="M66 71L67 72L66 71z"/>
<path style="fill:#a83b01; stroke:none;" d="M95 71L96 72L95 71z"/>
<path style="fill:#8c3001; stroke:none;" d="M115 71L116 72L115 71z"/>
<path style="fill:#ce4901; stroke:none;" d="M144 71L145 72L144 71z"/>
<path style="fill:#0b011f; stroke:none;" d="M193 71L194 72L193 71z"/>
<path style="fill:#1d0141; stroke:none;" d="M5.33333 72.6667L5.66667 73.3333L5.33333 72.6667z"/>
<path style="fill:#ce4901; stroke:none;" d="M66 72L67 73L66 72z"/>
<path style="fill:#6f2401; stroke:none;" d="M95 72L96 73L95 72z"/>
<path style="fill:#b94201; stroke:none;" d="M115 72L116 73L115 72z"/>
<path style="fill:#a83b01; stroke:none;" d="M144 72L145 73L144 72z"/>
<path style="fill:#1d0141; stroke:none;" d="M194.333 72.6667L194.667 73.3333L194.333 72.6667z"/>
<path style="fill:#2f0b01; stroke:none;" d="M65 73L66 74L65 73z"/>
<path style="fill:#4f1701; stroke:none;" d="M144 73L145 74L144 73z"/>
<path style="fill:#13012f; stroke:none;" d="M5 74L6 75L5 74z"/>
<path style="fill:#8c3001; stroke:none;" d="M65 74L66 75L65 74z"/>
<path style="fill:#ce4901; stroke:none;" d="M94 74L95 75L94 74z"/>
<path style="fill:#4f1701; stroke:none;" d="M114 74L115 75L114 74z"/>
<path style="fill:#13012f; stroke:none;" d="M194 74L195 75L194 74z"/>
<path style="fill:#0b011f; stroke:none;" d="M5 75L6 76L5 75z"/>
<path style="fill:#ce4901; stroke:none;" d="M65 75L66 76L65 75z"/>
<path style="fill:#8c3001; stroke:none;" d="M94 75L95 76L94 75z"/>
<path style="fill:#a83b01; stroke:none;" d="M114 75L115 76L114 75z"/>
<path style="fill:#b94201; stroke:none;" d="M143 75L144 76L143 75z"/>
<path style="fill:#0b011f; stroke:none;" d="M194 75L195 76L194 75z"/>
<path style="fill:#1d0141; stroke:none;" d="M4.33333 76.6667L4.66667 77.3333L4.33333 76.6667z"/>
<path style="fill:#2f0b01; stroke:none;" d="M94 76L95 77L94 76z"/>
<path style="fill:#ce4901; stroke:none;" d="M114 76L115 77L114 76z"/>
<path style="fill:#8c3001; stroke:none;" d="M143 76L144 77L143 76z"/>
<path style="fill:#1d0141; stroke:none;" d="M195.333 76.6667L195.667 77.3333L195.333 76.6667z"/>
<path style="fill:#6f2401; stroke:none;" d="M64 77L65 78L64 77z"/>
<path style="fill:#ce4901; stroke:none;" d="M93 77L94 78L93 77z"/>
<path style="fill:#190601; stroke:none;" d="M113 77L114 78L113 77M143 77L144 78L143 77z"/>
<path style="fill:#13012f; stroke:none;" d="M4 78L5 79L4 78z"/>
<path style="fill:#b94201; stroke:none;" d="M64 78L65 79L64 78z"/>
<path style="fill:#a83b01; stroke:none;" d="M93 78L94 79L93 78z"/>
<path style="fill:#8c3001; stroke:none;" d="M113 78L114 79L113 78z"/>
<path style="fill:#ce4901; stroke:none;" d="M142 78L143 79L142 78z"/>
<path style="fill:#13012f; stroke:none;" d="M195 78L196 79L195 78z"/>
<path style="fill:#0b011f; stroke:none;" d="M4 79L5 80L4 79z"/>
<path style="fill:#ce4901; stroke:none;" d="M64 79L65 80L64 79z"/>
<path style="fill:#6f2401; stroke:none;" d="M93 79L94 80L93 79z"/>
<path style="fill:#b94201; stroke:none;" d="M113 79L114 80L113 79z"/>
<path style="fill:#a83b01; stroke:none;" d="M142 79L143 80L142 79z"/>
<path style="fill:#0b011f; stroke:none;" d="M195 79L196 80L195 79z"/>
<path style="fill:#1d0141; stroke:none;" d="M3 80L3 83L4 83L3 80z"/>
<path style="fill:#2f0b01; stroke:none;" d="M63 80L64 81L63 80z"/>
<path style="fill:#4f1701; stroke:none;" d="M142 80L143 81L142 80z"/>
<path style="fill:#1d0141; stroke:none;" d="M196 80L196 83L197 83L196 80z"/>
<path style="fill:#8c3001; stroke:none;" d="M63 81L64 82L63 81z"/>
<path style="fill:#ce4901; stroke:none;" d="M92 81L93 82L92 81z"/>
<path style="fill:#4f1701; stroke:none;" d="M112 81L113 82L112 81z"/>
<path style="fill:#ce4901; stroke:none;" d="M63 82L64 83L63 82z"/>
<path style="fill:#8c3001; stroke:none;" d="M92 82L93 83L92 82z"/>
<path style="fill:#a83b01; stroke:none;" d="M112 82L113 83L112 82z"/>
<path style="fill:#b94201; stroke:none;" d="M141 82L142 83L141 82z"/>
<path style="fill:#13012f; stroke:none;" d="M3 83L4 84L3 83z"/>
<path style="fill:#2f0b01; stroke:none;" d="M92 83L93 84L92 83z"/>
<path style="fill:#ce4901; stroke:none;" d="M112 83L113 84L112 83z"/>
<path style="fill:#8c3001; stroke:none;" d="M141 83L142 84L141 83z"/>
<path style="fill:#13012f; stroke:none;" d="M196 83L197 84L196 83z"/>
<path style="fill:#0b011f; stroke:none;" d="M3.33333 84.6667L3.66667 85.3333L3.33333 84.6667z"/>
<path style="fill:#6f2401; stroke:none;" d="M62 84L63 85L62 84z"/>
<path style="fill:#ce4901; stroke:none;" d="M91 84L92 85L91 84z"/>
<path style="fill:#190601; stroke:none;" d="M111 84L112 85L111 84M141 84L142 85L141 84z"/>
<path style="fill:#0b011f; stroke:none;" d="M196.333 84.6667L196.667 85.3333L196.333 84.6667z"/>
<path style="fill:#a83b01; stroke:none;" d="M62 85L63 86L62 85M91 85L92 86L91 85z"/>
<path style="fill:#8c3001; stroke:none;" d="M111 85L112 86L111 85z"/>
<path style="fill:#ce4901; stroke:none;" d="M140 85L141 86L140 85z"/>
<path style="fill:#1d0141; stroke:none;" d="M2 86L2 90L3 90L2 86z"/>
<path style="fill:#ce4901; stroke:none;" d="M62 86L63 87L62 86z"/>
<path style="fill:#6f2401; stroke:none;" d="M91 86L92 87L91 86z"/>
<path style="fill:#b94201; stroke:none;" d="M111 86L112 87L111 86z"/>
<path style="fill:#a83b01; stroke:none;" d="M140 86L141 87L140 86z"/>
<path style="fill:#1d0141; stroke:none;" d="M197 86L197 90L198 90L197 86z"/>
<path style="fill:#2f0b01; stroke:none;" d="M61 87L62 88L61 87z"/>
<path style="fill:#8c3001; stroke:none;" d="M91 87L91 88L111 88L91 87z"/>
<path style="fill:#4f1701; stroke:none;" d="M140 87L141 88L140 87z"/>
<path style="fill:#8c3001; stroke:none;" d="M61 88L62 89L61 88z"/>
<path style="fill:#ce4901; stroke:none;" d="M61 89L62 90L61 89z"/>
<path style="fill:#b94201; stroke:none;" d="M139 89L140 90L139 89z"/>
<path style="fill:#13012f; stroke:none;" d="M2 90L2 93L3 93L2 90z"/>
<path style="fill:#8c3001; stroke:none;" d="M139 90L140 91L139 90z"/>
<path style="fill:#13012f; stroke:none;" d="M197 90L197 93L198 93L197 90z"/>
<path style="fill:#6f2401; stroke:none;" d="M60 91L61 92L60 91z"/>
<path style="fill:#190601; stroke:none;" d="M139 91L140 92L139 91z"/>
<path style="fill:#a83b01; stroke:none;" d="M60 92L61 93L60 92z"/>
<path style="fill:#ce4901; stroke:none;" d="M138 92L139 93L138 92z"/>
<path style="fill:#0b011f; stroke:none;" d="M2 93L2 96L3 96L2 93z"/>
<path style="fill:#ce4901; stroke:none;" d="M60 93L61 94L60 93z"/>
<path style="fill:#a83b01; stroke:none;" d="M138 93L139 94L138 93z"/>
<path style="fill:#0b011f; stroke:none;" d="M197 93L197 96L198 96L197 93z"/>
<path style="fill:#2f0b01; stroke:none;" d="M59 94L60 95L59 94z"/>
<path style="fill:#4f1701; stroke:none;" d="M138 94L139 95L138 94z"/>
<path style="fill:#8c3001; stroke:none;" d="M59 95L60 96L59 95z"/>
<path style="fill:#ce4901; stroke:none;" d="M59 96L60 97L59 96z"/>
<path style="fill:#b94201; stroke:none;" d="M137 96L138 97L137 96z"/>
<path style="fill:#8c3001; stroke:none;" d="M137 97L138 98L137 97z"/>
<path style="fill:#6f2401; stroke:none;" d="M58 98L59 99L58 98z"/>
<path style="fill:#190601; stroke:none;" d="M137 98L138 99L137 98z"/>
<path style="fill:#a83b01; stroke:none;" d="M58 99L59 100L58 99z"/>
<path style="fill:#ce4901; stroke:none;" d="M87 99L88 100L87 99z"/>
<path style="fill:#8c3001; stroke:none;" d="M88 99L88 100L107 100L88 99z"/>
<path style="fill:#a83b01; stroke:none;" d="M107 99L108 100L107 99z"/>
<path style="fill:#ce4901; stroke:none;" d="M136 99L137 100L136 99M58 100L59 101L58 100z"/>
<path style="fill:#6f2401; stroke:none;" d="M87 100L88 101L87 100z"/>
<path style="fill:#b94201; stroke:none;" d="M107 100L108 101L107 100z"/>
<path style="fill:#a83b01; stroke:none;" d="M136 100L137 101L136 100z"/>
<path style="fill:#2f0b01; stroke:none;" d="M57 101L58 102L57 101z"/>
<path style="fill:#ce4901; stroke:none;" d="M107 101L108 102L107 101z"/>
<path style="fill:#4f1701; stroke:none;" d="M136 101L137 102L136 101z"/>
<path style="fill:#8c3001; stroke:none;" d="M57 102L58 103L57 102z"/>
<path style="fill:#ce4901; stroke:none;" d="M86 102L87 103L86 102z"/>
<path style="fill:#2f0b01; stroke:none;" d="M106 102L107 103L106 102z"/>
<path style="fill:#ce4901; stroke:none;" d="M57 103L58 104L57 103z"/>
<path style="fill:#a83b01; stroke:none;" d="M86 103L87 104L86 103z"/>
<path style="fill:#8c3001; stroke:none;" d="M106 103L107 104L106 103z"/>
<path style="fill:#b94201; stroke:none;" d="M135 103L136 104L135 103z"/>
<path style="fill:#0b011f; stroke:none;" d="M2 104L2 107L3 107L2 104z"/>
<path style="fill:#4f1701; stroke:none;" d="M86 104L87 105L86 104z"/>
<path style="fill:#ce4901; stroke:none;" d="M106 104L107 105L106 104z"/>
<path style="fill:#8c3001; stroke:none;" d="M135 104L136 105L135 104z"/>
<path style="fill:#0b011f; stroke:none;" d="M197 104L197 107L198 107L197 104z"/>
<path style="fill:#6f2401; stroke:none;" d="M56 105L57 106L56 105z"/>
<path style="fill:#ce4901; stroke:none;" d="M85 105L86 106L85 105z"/>
<path style="fill:#190601; stroke:none;" d="M135 105L136 106L135 105z"/>
<path style="fill:#a83b01; stroke:none;" d="M56 106L57 107L56 106z"/>
<path style="fill:#b94201; stroke:none;" d="M85 106L86 107L85 106z"/>
<path style="fill:#6f2401; stroke:none;" d="M105 106L106 107L105 106z"/>
<path style="fill:#ce4901; stroke:none;" d="M134 106L135 107L134 106z"/>
<path style="fill:#13012f; stroke:none;" d="M2 107L2 110L3 110L2 107z"/>
<path style="fill:#ce4901; stroke:none;" d="M56 107L57 108L56 107z"/>
<path style="fill:#6f2401; stroke:none;" d="M85 107L86 108L85 107z"/>
<path style="fill:#b94201; stroke:none;" d="M105 107L106 108L105 107z"/>
<path style="fill:#a83b01; stroke:none;" d="M134 107L135 108L134 107z"/>
<path style="fill:#13012f; stroke:none;" d="M197 107L197 110L198 110L197 107z"/>
<path style="fill:#2f0b01; stroke:none;" d="M55 108L56 109L55 108z"/>
<path style="fill:#ce4901; stroke:none;" d="M105 108L106 109L105 108z"/>
<path style="fill:#4f1701; stroke:none;" d="M134 108L135 109L134 108z"/>
<path style="fill:#8c3001; stroke:none;" d="M55 109L56 110L55 109z"/>
<path style="fill:#ce4901; stroke:none;" d="M84 109L85 110L84 109z"/>
<path style="fill:#4f1701; stroke:none;" d="M104 109L105 110L104 109z"/>
<path style="fill:#1d0141; stroke:none;" d="M2 110L2 114L3 114L2 110z"/>
<path style="fill:#ce4901; stroke:none;" d="M55 110L56 111L55 110z"/>
<path style="fill:#a83b01; stroke:none;" d="M84 110L85 111L84 110M104 110L105 111L104 110z"/>
<path style="fill:#b94201; stroke:none;" d="M133 110L134 111L133 110z"/>
<path style="fill:#1d0141; stroke:none;" d="M197 110L197 114L198 114L197 110z"/>
<path style="fill:#4f1701; stroke:none;" d="M84 111L85 112L84 111z"/>
<path style="fill:#ce4901; stroke:none;" d="M104 111L105 112L104 111z"/>
<path style="fill:#8c3001; stroke:none;" d="M133 111L134 112L133 111z"/>
<path style="fill:#6f2401; stroke:none;" d="M54 112L55 113L54 112z"/>
<path style="fill:#ce4901; stroke:none;" d="M83 112L84 113L83 112z"/>
<path style="fill:#190601; stroke:none;" d="M133 112L134 113L133 112z"/>
<path style="fill:#a83b01; stroke:none;" d="M54 113L55 114L54 113z"/>
<path style="fill:#b94201; stroke:none;" d="M83 113L84 114L83 113z"/>
<path style="fill:#6f2401; stroke:none;" d="M103 113L104 114L103 113z"/>
<path style="fill:#ce4901; stroke:none;" d="M132 113L133 114L132 113z"/>
<path style="fill:#0b011f; stroke:none;" d="M3.33333 114.667L3.66667 115.333L3.33333 114.667z"/>
<path style="fill:#ce4901; stroke:none;" d="M54 114L55 115L54 114z"/>
<path style="fill:#6f2401; stroke:none;" d="M83 114L84 115L83 114z"/>
<path style="fill:#b94201; stroke:none;" d="M103 114L104 115L103 114z"/>
<path style="fill:#a83b01; stroke:none;" d="M132 114L133 115L132 114z"/>
<path style="fill:#0b011f; stroke:none;" d="M196.333 114.667L196.667 115.333L196.333 114.667z"/>
<path style="fill:#2f0b01; stroke:none;" d="M53 115L54 116L53 115z"/>
<path style="fill:#ce4901; stroke:none;" d="M103 115L104 116L103 115z"/>
<path style="fill:#4f1701; stroke:none;" d="M132 115L133 116L132 115z"/>
<path style="fill:#13012f; stroke:none;" d="M3 116L4 117L3 116z"/>
<path style="fill:#8c3001; stroke:none;" d="M53 116L54 117L53 116z"/>
<path style="fill:#ce4901; stroke:none;" d="M82 116L83 117L82 116z"/>
<path style="fill:#4f1701; stroke:none;" d="M102 116L103 117L102 116z"/>
<path style="fill:#13012f; stroke:none;" d="M196 116L197 117L196 116z"/>
<path style="fill:#1d0141; stroke:none;" d="M3 117L3 120L4 120L3 117z"/>
<path style="fill:#ce4901; stroke:none;" d="M53 117L54 118L53 117z"/>
<path style="fill:#8c3001; stroke:none;" d="M82 117L83 118L82 117z"/>
<path style="fill:#a83b01; stroke:none;" d="M102 117L103 118L102 117z"/>
<path style="fill:#b94201; stroke:none;" d="M131 117L132 118L131 117z"/>
<path style="fill:#1d0141; stroke:none;" d="M196 117L196 120L197 120L196 117z"/>
<path style="fill:#4f1701; stroke:none;" d="M82 118L83 119L82 118z"/>
<path style="fill:#ce4901; stroke:none;" d="M102 118L103 119L102 118z"/>
<path style="fill:#8c3001; stroke:none;" d="M131 118L132 119L131 118z"/>
<path style="fill:#6f2401; stroke:none;" d="M52 119L53 120L52 119z"/>
<path style="fill:#2f0b01; stroke:none;" d="M101 119L102 120L101 119M131 119L132 120L131 119z"/>
<path style="fill:#0b011f; stroke:none;" d="M4 120L5 121L4 120z"/>
<path style="fill:#ce4901; stroke:none;" d="M52 120L53 121L52 120M81 120L81 123L82 123L81 120z"/>
<path style="fill:#a83b01; stroke:none;" d="M101 120L102 121L101 120z"/>
<path style="fill:#0b011f; stroke:none;" d="M195 120L196 121L195 120z"/>
<path style="fill:#13012f; stroke:none;" d="M4 121L5 122L4 121z"/>
<path style="fill:#6f2401; stroke:none;" d="M51 121L52 122L51 121z"/>
<path style="fill:#2f0b01; stroke:none;" d="M100 121L101 122L100 121z"/>
<path style="fill:#13012f; stroke:none;" d="M195 121L196 122L195 121z"/>
<path style="fill:#1d0141; stroke:none;" d="M4.33333 122.667L4.66667 123.333L4.33333 122.667z"/>
<path style="fill:#2f0b01; stroke:none;" d="M50 122L51 123L50 122z"/>
<path style="fill:#ce4901; stroke:none;" d="M51 122L52 123L51 122M100 122L101 123L100 122z"/>
<path style="fill:#1d0141; stroke:none;" d="M195.333 122.667L195.667 123.333L195.333 122.667z"/>
<path style="fill:#4f1701; stroke:none;" d="M49 123L50 124L49 123z"/>
<path style="fill:#ce4901; stroke:none;" d="M50 123L51 124L50 123z"/>
<path style="fill:#4f1701; stroke:none;" d="M82 123L83 124L82 123z"/>
<path style="fill:#190601; stroke:none;" d="M98 123L99 124L98 123z"/>
<path style="fill:#ce4901; stroke:none;" d="M99 123L100 124L99 123z"/>
<path style="fill:#8c3001; stroke:none;" d="M131 123L132 124L131 123z"/>
<path style="fill:#0b011f; stroke:none;" d="M5 124L6 125L5 124z"/>
<path style="fill:#8c3001; stroke:none;" d="M48 124L49 125L48 124z"/>
<path style="fill:#ce4901; stroke:none;" d="M82 124L83 125L82 124z"/>
<path style="fill:#6f2401; stroke:none;" d="M97 124L98 125L97 124z"/>
<path style="fill:#ce4901; stroke:none;" d="M131 124L132 125L131 124z"/>
<path style="fill:#0b011f; stroke:none;" d="M194 124L195 125L194 124z"/>
<path style="fill:#13012f; stroke:none;" d="M5 125L6 126L5 125z"/>
<path style="fill:#4f1701; stroke:none;" d="M46 125L47 126L46 125z"/>
<path style="fill:#ce4901; stroke:none;" d="M47 125L48 126L47 125z"/>
<path style="fill:#6f2401; stroke:none;" d="M83 125L84 126L83 125z"/>
<path style="fill:#190601; stroke:none;" d="M95 125L96 126L95 125z"/>
<path style="fill:#b94201; stroke:none;" d="M96 125L97 126L96 125z"/>
<path style="fill:#a83b01; stroke:none;" d="M132 125L133 126L132 125z"/>
<path style="fill:#13012f; stroke:none;" d="M194 125L195 126L194 125z"/>
<path style="fill:#1d0141; stroke:none;" d="M5.33333 126.667L5.66667 127.333L5.33333 126.667z"/>
<path style="fill:#4f1701; stroke:none;" d="M45 126L46 127L45 126z"/>
<path style="fill:#190601; stroke:none;" d="M84 126L85 127L84 126z"/>
<path style="fill:#ce4901; stroke:none;" d="M95 126L96 127L95 126z"/>
<path style="fill:#4f1701; stroke:none;" d="M133 126L134 127L133 126z"/>
<path style="fill:#1d0141; stroke:none;" d="M194.333 126.667L194.667 127.333L194.333 126.667z"/>
<path style="fill:#ce4901; stroke:none;" d="M45 127L46 128L45 127z"/>
<path style="fill:#8c3001; stroke:none;" d="M84.3333 127.667L84.6667 128.333L84.3333 127.667z"/>
<path style="fill:#a83b01; stroke:none;" d="M94 127L95 128L94 127z"/>
<path style="fill:#b94201; stroke:none;" d="M133.333 127.667L133.667 128.333L133.333 127.667z"/>
<path style="fill:#0b011f; stroke:none;" d="M6 128L7 129L6 128z"/>
<path style="fill:#ce4901; stroke:none;" d="M94.3333 128.667L94.6667 129.333L94.3333 128.667z"/>
<path style="fill:#0b011f; stroke:none;" d="M193 128L194 129L193 128z"/>
<path style="fill:#13012f; stroke:none;" d="M6 129L7 130L6 129z"/>
<path style="fill:#2f0b01; stroke:none;" d="M84 129L85 130L84 129z"/>
<path style="fill:#6f2401; stroke:none;" d="M133 129L134 130L133 129z"/>
<path style="fill:#13012f; stroke:none;" d="M193 129L194 130L193 129z"/>
<path style="fill:#1d0141; stroke:none;" d="M6 130L7 131L6 130z"/>
<path style="fill:#a83b01; stroke:none;" d="M45 130L46 131L45 130z"/>
<path style="fill:#8c3001; stroke:none;" d="M83 130L84 131L83 130M94 130L95 131L94 130z"/>
<path style="fill:#a83b01; stroke:none;" d="M132 130L133 131L132 130z"/>
<path style="fill:#1d0141; stroke:none;" d="M193 130L194 131L193 130z"/>
<path style="fill:#0b011f; stroke:none;" d="M7 131L8 132L7 131z"/>
<path style="fill:#8c3001; stroke:none;" d="M46 131L47 132L46 131z"/>
<path style="fill:#ce4901; stroke:none;" d="M47 131L48 132L47 131M80 131L81 132L80 131z"/>
<path style="fill:#b94201; stroke:none;" d="M81 131L82 132L81 131z"/>
<path style="fill:#4f1701; stroke:none;" d="M82 131L83 132L82 131z"/>
<path style="fill:#6f2401; stroke:none;" d="M95 131L96 132L95 131z"/>
<path style="fill:#ce4901; stroke:none;" d="M96 131L97 132L96 131M129.667 131.333L130.333 131.667L129.667 131.333z"/>
<path style="fill:#6f2401; stroke:none;" d="M131 131L132 132L131 131z"/>
<path style="fill:#0b011f; stroke:none;" d="M192 131L193 132L192 131z"/>
<path style="fill:#13012f; stroke:none;" d="M7 132L8 133L7 132M192 132L193 133L192 132z"/>
<path style="fill:#1d0141; stroke:none;" d="M7 133L8 134L7 133M192 133L193 134L192 133z"/>
<path style="fill:#13012f; stroke:none;" d="M8 134L9 135L8 134M191 134L192 135L191 134z"/>
<path style="fill:#1d0141; stroke:none;" d="M8.33333 135.667L8.66667 136.333L8.33333 135.667M191.333 135.667L191.667 136.333L191.333 135.667z"/>
<path style="fill:#0b011f; stroke:none;" d="M9 136L10 137L9 136M190 136L191 137L190 136z"/>
<path style="fill:#13012f; stroke:none;" d="M9 137L10 138L9 137M190 137L191 138L190 137z"/>
<path style="fill:#1d0141; stroke:none;" d="M9 138L10 139L9 138M190 138L191 139L190 138z"/>
<path style="fill:#13012f; stroke:none;" d="M10 139L11 140L10 139M189 139L190 140L189 139z"/>
<path style="fill:#1d0141; stroke:none;" d="M10 140L11 141L10 140M189 140L190 141L189 140z"/>
<path style="fill:#0b011f; stroke:none;" d="M11 141L12 142L11 141M188 141L189 142L188 141z"/>
<path style="fill:#1d0141; stroke:none;" d="M11 142L12 143L11 142M188 142L189 143L188 142z"/>
<path style="fill:#0b011f; stroke:none;" d="M12 143L13 144L12 143M187 143L188 144L187 143z"/>
<path style="fill:#1d0141; stroke:none;" d="M12 144L13 145L12 144M187 144L188 145L187 144z"/>
<path style="fill:#0b011f; stroke:none;" d="M13 145L14 146L13 145M186 145L187 146L186 145z"/>
<path style="fill:#1d0141; stroke:none;" d="M13 146L14 147L13 146M186 146L187 147L186 146z"/>
<path style="fill:#13012f; stroke:none;" d="M14 147L15 148L14 147M185 147L186 148L185 147z"/>
<path style="fill:#1d0141; stroke:none;" d="M14 148L15 149L14 148M185 148L186 149L185 148z"/>
<path style="fill:#13012f; stroke:none;" d="M15 149L16 150L15 149M184 149L185 150L184 149z"/>
<path style="fill:#1d0141; stroke:none;" d="M15 150L17 152L15 150z"/>
<path style="fill:#0b011f; stroke:none;" d="M16 150L17 151L16 150M183 150L184 151L183 150z"/>
<path style="fill:#1d0141; stroke:none;" d="M184 150L185 151L184 150M183 151L184 152L183 151z"/>
<path style="fill:#13012f; stroke:none;" d="M17 152L18 153L17 152M182 152L183 153L182 152z"/>
<path style="fill:#1d0141; stroke:none;" d="M17 153L18 154L17 153M182 153L183 154L182 153z"/>
<path style="fill:#13012f; stroke:none;" d="M18 154L19 155L18 154M181 154L182 155L181 154M19 155L20 156L19 155M180 155L181 156L180 155z"/>
<path style="fill:#1d0141; stroke:none;" d="M19 156L21 158L19 156z"/>
<path style="fill:#0b011f; stroke:none;" d="M20 156L21 157L20 156M179 156L180 157L179 156z"/>
<path style="fill:#1d0141; stroke:none;" d="M180 156L181 157L180 156M179 157L180 158L179 157z"/>
<path style="fill:#13012f; stroke:none;" d="M21 158L22 159L21 158M178 158L179 159L178 158z"/>
<path style="fill:#1d0141; stroke:none;" d="M21 159L24 162L21 159z"/>
<path style="fill:#0b011f; stroke:none;" d="M22 159L23 160L22 159M177 159L176 161L177 159z"/>
<path style="fill:#1d0141; stroke:none;" d="M178 159L179 160L178 159z"/>
<path style="fill:#0b011f; stroke:none;" d="M23 160L24 161L23 160z"/>
<path style="fill:#1d0141; stroke:none;" d="M177 160L178 161L177 160M176 161L177 162L176 161z"/>
<path style="fill:#13012f; stroke:none;" d="M24 162L25 163L24 162M175 162L176 163L175 162M25 163L28 166L25 163M174 163L172 166L174 163z"/>
<path style="fill:#1d0141; stroke:none;" d="M25 164L26 165L25 164M174 164L175 165L174 164M26 165L27 166L26 165M173 165L174 166L173 165M27 166L36 175L27 166z"/>
<path style="fill:#0b011f; stroke:none;" d="M28 166L29 167L28 166M171 166L166 172L171 166z"/>
<path style="fill:#1d0141; stroke:none;" d="M172 166L173 167L172 166z"/>
<path style="fill:#0b011f; stroke:none;" d="M29 167L30 168L29 167z"/>
<path style="fill:#1d0141; stroke:none;" d="M171 167L172 168L171 167z"/>
<path style="fill:#0b011f; stroke:none;" d="M30 168L31 169L30 168z"/>
<path style="fill:#1d0141; stroke:none;" d="M170 168L171 169L170 168z"/>
<path style="fill:#0b011f; stroke:none;" d="M31 169L32 170L31 169z"/>
<path style="fill:#1d0141; stroke:none;" d="M169 169L170 170L169 169z"/>
<path style="fill:#0b011f; stroke:none;" d="M32 170L33 171L32 170z"/>
<path style="fill:#1d0141; stroke:none;" d="M168 170L169 171L168 170z"/>
<path style="fill:#0b011f; stroke:none;" d="M33 171L34 172L33 171z"/>
<path style="fill:#1d0141; stroke:none;" d="M167 171L168 172L167 171z"/>
<path style="fill:#13012f; stroke:none;" d="M34 172L35 173L34 172M165 172L163 175L165 172z"/>
<path style="fill:#1d0141; stroke:none;" d="M166 172L167 173L166 172z"/>
<path style="fill:#13012f; stroke:none;" d="M35 173L36 174L35 173z"/>
<path style="fill:#1d0141; stroke:none;" d="M165 173L166 174L165 173z"/>
<path style="fill:#13012f; stroke:none;" d="M36 174L37 175L36 174z"/>
<path style="fill:#1d0141; stroke:none;" d="M164 174L165 175L164 174z"/>
<path style="fill:#13012f; stroke:none;" d="M37 175L38 176L37 175M162 175L163 176L162 175z"/>
<path style="fill:#1d0141; stroke:none;" d="M38 176L41 179L38 176z"/>
<path style="fill:#0b011f; stroke:none;" d="M39 176L40 177L39 176M160 176L159 178L160 176z"/>
<path style="fill:#1d0141; stroke:none;" d="M161 176L162 177L161 176z"/>
<path style="fill:#0b011f; stroke:none;" d="M40 177L41 178L40 177z"/>
<path style="fill:#1d0141; stroke:none;" d="M160 177L161 178L160 177z"/>
<path style="fill:#13012f; stroke:none;" d="M41 178L42 179L41 178M158 178L159 179L158 178z"/>
<path style="fill:#1d0141; stroke:none;" d="M159 178L160 179L159 178M42 179L44 181L42 179z"/>
<path style="fill:#0b011f; stroke:none;" d="M43 179L44 180L43 179M156 179L157 180L156 179z"/>
<path style="fill:#1d0141; stroke:none;" d="M157 179L158 180L157 179z"/>
<path style="fill:#13012f; stroke:none;" d="M44 180L45 181L44 180M155 180L156 181L155 180z"/>
<path style="fill:#1d0141; stroke:none;" d="M156 180L157 181L156 180z"/>
<path style="fill:#13012f; stroke:none;" d="M45 181L46 182L45 181M154 181L155 182L154 181z"/>
<path style="fill:#1d0141; stroke:none;" d="M46 182L47 183L46 182z"/>
<path style="fill:#13012f; stroke:none;" d="M47 182L48 183L47 182M152 182L153 183L152 182z"/>
<path style="fill:#1d0141; stroke:none;" d="M153 182L154 183L153 182M48 183L50 185L48 183z"/>
<path style="fill:#0b011f; stroke:none;" d="M49 183L50 184L49 183M150 183L151 184L150 183z"/>
<path style="fill:#1d0141; stroke:none;" d="M151 183L152 184L151 183z"/>
<path style="fill:#13012f; stroke:none;" d="M50 184L51 185L50 184M149 184L150 185L149 184z"/>
<path style="fill:#1d0141; stroke:none;" d="M150 184L151 185L150 184M51 185L52 186L51 185z"/>
<path style="fill:#13012f; stroke:none;" d="M52 185L53 186L52 185M147 185L148 186L147 185z"/>
<path style="fill:#1d0141; stroke:none;" d="M148 185L149 186L148 185M53 186L54 187L53 186z"/>
<path style="fill:#0b011f; stroke:none;" d="M54 186L55 187L54 186M145 186L146 187L145 186z"/>
<path style="fill:#1d0141; stroke:none;" d="M146 186L147 187L146 186M55 187L56 188L55 187z"/>
<path style="fill:#0b011f; stroke:none;" d="M56 187L57 188L56 187M143 187L144 188L143 187z"/>
<path style="fill:#1d0141; stroke:none;" d="M144 187L145 188L144 187M57 188L58 189L57 188z"/>
<path style="fill:#0b011f; stroke:none;" d="M58 188L59 189L58 188M141 188L142 189L141 188z"/>
<path style="fill:#1d0141; stroke:none;" d="M142 188L143 189L142 188M59 189L60 190L59 189z"/>
<path style="fill:#13012f; stroke:none;" d="M60 189L61 190L60 189M139 189L140 190L139 189z"/>
<path style="fill:#1d0141; stroke:none;" d="M140 189L141 190L140 189M61 190L62 191L61 190z"/>
<path style="fill:#13012f; stroke:none;" d="M62 190L63 191L62 190z"/>
<path style="fill:#0b011f; stroke:none;" d="M63 190L64 191L63 190M136 190L137 191L136 190z"/>
<path style="fill:#13012f; stroke:none;" d="M137 190L138 191L137 190z"/>
<path style="fill:#1d0141; stroke:none;" d="M138 190L139 191L138 190M63.6667 191.333L64.3333 191.667L63.6667 191.333z"/>
<path style="fill:#13012f; stroke:none;" d="M65 191L66 192L65 191M134 191L135 192L134 191z"/>
<path style="fill:#1d0141; stroke:none;" d="M135.667 191.333L136.333 191.667L135.667 191.333M66 192L67 193L66 192z"/>
<path style="fill:#13012f; stroke:none;" d="M67 192L68 193L67 192z"/>
<path style="fill:#0b011f; stroke:none;" d="M68 192L69 193L68 192M131 192L132 193L131 192z"/>
<path style="fill:#13012f; stroke:none;" d="M132 192L133 193L132 192z"/>
<path style="fill:#1d0141; stroke:none;" d="M133 192L134 193L133 192M69 193L70 194L69 193z"/>
<path style="fill:#13012f; stroke:none;" d="M70 193L71 194L70 193z"/>
<path style="fill:#0b011f; stroke:none;" d="M71 193L72 194L71 193M128 193L129 194L128 193z"/>
<path style="fill:#13012f; stroke:none;" d="M129 193L130 194L129 193z"/>
<path style="fill:#1d0141; stroke:none;" d="M130 193L131 194L130 193M72.6667 194.333L73.3333 194.667L72.6667 194.333z"/>
<path style="fill:#13012f; stroke:none;" d="M74 194L75 195L74 194z"/>
<path style="fill:#0b011f; stroke:none;" d="M75 194L76 195L75 194M124 194L125 195L124 194z"/>
<path style="fill:#13012f; stroke:none;" d="M125 194L126 195L125 194z"/>
<path style="fill:#1d0141; stroke:none;" d="M126.667 194.333L127.333 194.667L126.667 194.333M76.6667 195.333L77.3333 195.667L76.6667 195.333z"/>
<path style="fill:#13012f; stroke:none;" d="M78 195L79 196L78 195z"/>
<path style="fill:#0b011f; stroke:none;" d="M79 195L80 196L79 195M120 195L121 196L120 195z"/>
<path style="fill:#13012f; stroke:none;" d="M121 195L122 196L121 195z"/>
<path style="fill:#1d0141; stroke:none;" d="M122.667 195.333L123.333 195.667L122.667 195.333M80 196L80 197L83 197L80 196z"/>
<path style="fill:#13012f; stroke:none;" d="M83 196L84 197L83 196z"/>
<path style="fill:#0b011f; stroke:none;" d="M84.6667 196.333L85.3333 196.667L84.6667 196.333M114.667 196.333L115.333 196.667L114.667 196.333z"/>
<path style="fill:#13012f; stroke:none;" d="M116 196L117 197L116 196z"/>
<path style="fill:#1d0141; stroke:none;" d="M117 196L117 197L120 197L117 196M86 197L86 198L90 198L86 197z"/>
<path style="fill:#13012f; stroke:none;" d="M90 197L90 198L93 198L90 197z"/>
<path style="fill:#0b011f; stroke:none;" d="M93 197L93 198L96 198L93 197M104 197L104 198L107 198L104 197z"/>
<path style="fill:#13012f; stroke:none;" d="M107 197L107 198L110 198L107 197z"/>
<path style="fill:#1d0141; stroke:none;" d="M110 197L110 198L114 198L110 197z"/>
</svg>
